PathFileType	4	(X/Y/Z)	C:\Users\Basilio\Documents\Thesis Gigler\squatting_fais\c3dfiles\076\SJ_pre3\markers_experimental.trc
DataRate	CameraRate	NumFrames	NumMarkers	Units	OrigDataRate	OrigDataStartFrame	OrigNumFrames
200.000000	200.000000	4	61	mm	200.000000	0	1365
Frame#	Time	FHD			RBHD			C7			T10			CLAV			LSHO			LUUPA			LMUPA			LDUPA			LLEP			LMEP			LRAD			LUL			LRFIN			RSHO			RUPA1			RMUPA			RDUPA			RLEP			RMEP			RRAD			RUL			RUFIN			LASI			RASI			USACR			LSACR			RSACR			LTHI1			LTHI2			LTHI3			LTHI4			LLFC			LMFC			LTIB1			LTIB2			LTIB3			LTIB4			LLMAL			LMMAL			LHEE			LMT1			LMT2			LMT5			RTHI			RTHI2			RTHI3			RTHI4			RLFC			RMFC			RTIB1			RTIB2			RTIB3			RTIB4			RLMAL			RMMAL			RHEE			RMT1			RMT2			RMT5			LBHD			
		X1	Y1	Z1	X2	Y2	Z2	X3	Y3	Z3	X4	Y4	Z4	X5	Y5	Z5	X6	Y6	Z6	X7	Y7	Z7	X8	Y8	Z8	X9	Y9	Z9	X10	Y10	Z10	X11	Y11	Z11	X12	Y12	Z12	X13	Y13	Z13	X14	Y14	Z14	X15	Y15	Z15	X16	Y16	Z16	X17	Y17	Z17	X18	Y18	Z18	X19	Y19	Z19	X20	Y20	Z20	X21	Y21	Z21	X22	Y22	Z22	X23	Y23	Z23	X24	Y24	Z24	X25	Y25	Z25	X26	Y26	Z26	X27	Y27	Z27	X28	Y28	Z28	X29	Y29	Z29	X30	Y30	Z30	X31	Y31	Z31	X32	Y32	Z32	X33	Y33	Z33	X34	Y34	Z34	X35	Y35	Z35	X36	Y36	Z36	X37	Y37	Z37	X38	Y38	Z38	X39	Y39	Z39	X40	Y40	Z40	X41	Y41	Z41	X42	Y42	Z42	X43	Y43	Z43	X44	Y44	Z44	X45	Y45	Z45	X46	Y46	Z46	X47	Y47	Z47	X48	Y48	Z48	X49	Y49	Z49	X50	Y50	Z50	X51	Y51	Z51	X52	Y52	Z52	X53	Y53	Z53	X54	Y54	Z54	X55	Y55	Z55	X56	Y56	Z56	X57	Y57	Z57	X58	Y58	Z58	X59	Y59	Z59	X60	Y60	Z60	X61	Y61	Z61	

1	0	-183.9000701904297	1616.982543945313	-899.9753417968752	-280.3883972167969	1534.77978515625	-815.4094848632815	-359.6684265136719	1414.527465820313	-903.6647949218752	-365.3676452636719	1092.290405273438	-923.0642700195315	-225.2164459228516	1344.129150390625	-905.9698486328127	-293.6431579589844	1370.3046875	-1078.78759765625	-302.9533081054688	1213.018798828125	-1206.1162109375	-285.2781677246094	1169.92333984375	-1187.7041015625	-308.8686828613282	1153.672485351563	-1241.7685546875	-319.9851074218751	1104.443603515625	-1268.938720703125	-398.4645385742189	1090.0126953125	-1231.280395507813	-311.4703369140626	918.6875610351565	-1112.632568359375	-263.4880065917969	937.2092285156252	-1090.40185546875	-267.8699340820313	891.4527587890627	-1151.657836914063	-299.3935241699219	1352.5087890625	-739.4802856445314	-348.9506835937501	1205.192993164063	-613.2451171875001	-313.8574218750001	1168.8349609375	-612.1919555664064	-356.7900695800782	1144.083129882813	-577.4669799804689	-347.4966125488282	1074.334716796875	-557.4150390625001	-412.1997985839845	1056.923095703125	-615.5545654296876	-298.1931762695313	913.8653564453127	-731.6646118164064	-243.9737091064454	934.5828247070315	-740.9692382812501	-254.2334442138672	888.4439697265627	-686.7723999023439	-193.9702911376954	910.8924560546877	-1024.86474609375	-192.9281921386719	910.7390747070315	-816.4002685546877	-359.0988769531251	989.5799560546877	-920.6189575195315	-365.7308044433594	961.8220214843752	-949.5429687500002	-365.1545410156251	959.628356933594	-892.985046386719	-291.5956726074219	770.0779418945315	-1098.362060546875	-275.7868041992188	686.3427124023439	-1103.89501953125	-227.9842071533204	681.1885375976564	-1090.883178710938	-313.7279052734376	639.3259277343751	-1095.048950195313	-337.7298278808594	479.8385620117189	-1081.637939453125	-307.0487976074219	459.6199035644532	-968.8884887695315	-316.7548217773438	327.2401733398438	-1028.991821289063	-340.7962951660157	282.8513793945313	-1101.89208984375	-313.3569030761719	280.7285156250001	-1064.9814453125	-330.4067993164063	200.6595611572266	-1041.114379882813	-389.4218139648439	83.31697845458986	-1108.903686523438	-365.0610351562501	87.32869720458986	-1026.853271484375	-444.2674255371095	44.64831542968751	-1069.684692382813	-234.6714324951172	52.81249237060548	-1051.898315429688	-228.538803100586	53.84995651245119	-1090.149780273438	-247.1589813232422	43.27560043334962	-1142.027465820313	-310.0154113769532	676.2989501953126	-744.4038696289064	-280.8730163574219	615.4618530273439	-742.3191528320314	-247.3116912841797	614.5434570312501	-749.8732910156251	-318.4194335937501	543.1830444335939	-755.1030883789064	-327.7372436523438	481.8391418457032	-758.2697753906251	-297.7835693359376	468.2617797851564	-872.3057861328127	-298.7705993652344	346.3774719238282	-770.2005615234377	-372.8789367675782	270.9984130859376	-742.7414550781251	-326.6870727539063	265.2641296386719	-751.3936767578126	-314.0302124023438	217.3291473388672	-781.3613281250002	-380.4639587402344	80.4613494873047	-746.2702636718751	-356.3713073730469	90.18032073974611	-828.4368896484377	-434.776092529297	51.05027389526369	-790.7888793945315	-226.7672729492188	52.62280273437501	-800.0871582031252	-224.9158020019532	55.72501754760744	-754.6868896484376	-252.7051544189454	34.58806228637696	-701.6436157226564	nan	nan	nan	
2	0.005	-184.1264038085938	1616.987182617188	-899.6089477539065	-280.9819641113282	1534.859741210938	-815.3526000976565	-359.7832641601563	1414.504150390625	-903.6741943359377	-365.3479309082032	1092.266723632813	-923.0630493164065	-225.3288726806641	1344.15576171875	-905.8400878906252	-293.6116027832032	1370.283447265625	-1078.74755859375	-302.8541870117188	1213.005981445313	-1206.062133789063	-285.2095336914063	1169.931274414063	-1187.623413085938	-308.8919677734376	1153.647216796875	-1241.765502929688	-319.8910217285157	1104.437255859375	-1268.908203125	-398.388153076172	1090.034057617188	-1231.186767578125	-311.4615783691407	918.690124511719	-1112.584228515625	-263.4080810546876	937.1772460937502	-1090.346923828125	-267.7785644531251	891.411804199219	-1151.6376953125	-299.6272277832032	1352.488159179688	-739.4143676757814	-349.1935424804688	1205.128173828125	-613.2412109375001	-314.0055236816407	1168.811279296875	-612.1765747070314	-356.9293518066407	1144.045532226563	-577.4431152343751	-347.6437988281251	1074.286254882813	-557.3439331054689	-412.3050537109376	1056.778442382813	-615.6196289062501	-298.2371520996094	913.8466796875002	-731.6441040039064	-243.9775695800782	934.5733032226565	-740.9662475585939	-254.2335205078126	888.4260253906252	-686.7720336914064	-193.954086303711	910.8379516601565	-1024.813842773438	-192.9281921386719	910.7390747070315	-816.4002685546877	-359.0966186523438	989.5715332031252	-920.598327636719	-365.6703491210938	961.792907714844	-949.5476684570315	-365.1604919433594	959.6280517578127	-893.0024414062502	-291.5758361816407	770.0339965820315	-1098.324829101563	-275.7941589355469	686.2902221679689	-1103.832275390625	-227.8973999023438	681.1489868164064	-1090.839111328125	-313.6806640625001	639.3261108398439	-1095.048950195313	-337.6063842773438	479.851287841797	-1081.597290039063	-307.0622863769532	459.5793762207032	-968.8527832031252	-316.7812500000001	327.2233886718751	-1028.976806640625	-340.7991638183594	282.8235168457032	-1101.884887695313	-313.3845520019532	280.6594238281251	-1064.962280273438	-330.3840637207032	200.6582794189454	-1041.078857421875	-389.3844299316407	83.3100051879883	-1108.906860351563	-365.0887145996094	87.32851409912111	-1026.857666015625	-444.2430114746095	44.60964584350587	-1069.684204101563	-234.6969604492188	52.81751251220705	-1051.86376953125	-228.5288543701172	53.85523223876955	-1090.15380859375	-247.1757354736329	43.28086471557618	-1142.032470703125	-310.0263061523438	676.2957153320314	-744.3369140625001	-280.8651733398438	615.4584350585939	-742.2706909179689	-247.2716369628907	614.5245361328126	-749.9110717773439	-318.4129028320313	543.1142578125001	-755.0973510742189	-327.6981506347657	481.7889709472657	-758.2628173828126	-297.7134704589844	468.2592163085939	-872.2216796875002	-298.7533569335938	346.3305358886719	-770.1663208007815	-372.8829345703126	271.0065002441407	-742.6638183593751	-326.6777038574219	265.2587585449219	-751.3623657226564	-314.0331420898438	217.3123168945313	-781.4051513671877	-380.4689025878907	80.4322967529297	-746.2473144531251	-356.3499755859376	90.18023681640626	-828.4294433593752	-434.7431640625001	51.05010223388673	-790.781677246094	-226.7543182373047	52.62350845336915	-800.115173339844	-224.9408416748047	55.73128128051759	-754.7564697265626	-252.7108612060547	34.58695220947266	-701.6614990234376	nan	nan	nan	
3	0.01	-184.4600830078125	1617.024169921875	-899.2859497070315	-281.5205078125001	1534.911376953125	-815.4587402343752	-359.9073486328126	1414.438720703125	-903.6651000976565	-365.3297424316407	1092.195190429688	-923.1190185546877	-225.3983154296876	1344.154663085938	-905.7761230468752	-293.5854797363282	1370.364624023438	-1078.663940429688	-302.8439941406251	1213.011962890625	-1206.040405273438	-285.1556091308594	1169.922973632813	-1187.609985351563	-308.7543945312501	1153.642822265625	-1241.7021484375	-319.8210144042969	1104.451538085938	-1268.904052734375	-398.2757568359376	1090.006225585938	-1231.18701171875	-311.4615783691407	918.690124511719	-1112.584228515625	-263.3294677734376	937.1435546875002	-1090.326782226563	-267.6046142578126	891.4136352539065	-1151.619506835938	-299.8118286132813	1352.4892578125	-739.3173217773439	-349.3592834472657	1205.066162109375	-613.2025756835939	-314.2179870605469	1168.756103515625	-612.0847778320314	-357.1414489746094	1143.968872070313	-577.4309692382814	-347.7771606445313	1074.230224609375	-557.3687133789064	-412.4442443847657	1056.728759765625	-615.6191406250001	-298.3479309082032	913.8360595703127	-731.6439208984376	-244.0078125000001	934.5795898437502	-740.8648071289064	-254.2611236572266	888.4116210937502	-686.7328491210939	-193.8512878417969	910.8183593750002	-1024.782104492188	-192.9038696289063	910.7497558593752	-816.3179931640627	-359.0920715332032	989.5407714843752	-920.6192016601565	-365.6197814941407	961.810485839844	-949.5693359375002	-365.1564636230469	959.6308593750002	-893.0272216796877	-291.5086669921876	770.0765380859377	-1098.248657226563	-275.6759033203126	686.2736816406251	-1103.7802734375	-227.8597869873047	681.0917968750001	-1090.781005859375	-313.6006164550782	639.2702026367189	-1095.00341796875	-337.6238403320313	479.8026123046876	-1081.570678710938	-307.1159973144532	459.5453491210939	-968.8169555664065	-316.7584533691407	327.2107849121094	-1028.962768554688	-340.7868347167969	282.8092041015626	-1101.861206054688	-313.3445129394532	280.6508483886719	-1064.946533203125	-330.3840637207032	200.6582794189454	-1041.078857421875	-389.420867919922	83.28560638427736	-1108.935668945313	-365.0819702148438	87.32798004150392	-1026.850463867188	-444.2683105468751	44.65050125122071	-1069.656372070313	-234.7077789306641	52.79371261596681	-1052.0068359375	-228.5467529296876	53.84787750244142	-1090.09814453125	-247.1610717773438	43.28674697875977	-1141.991943359375	-309.9447937011719	676.2457275390626	-744.2921142578126	-280.8222656250001	615.4178466796876	-742.2490234375001	-247.2371826171876	614.5128173828126	-749.8414916992189	-318.3374023437501	543.1101074218751	-755.0104370117189	-327.6319580078126	481.7811584472657	-758.1964111328126	-297.7172241210938	468.254364013672	-872.2241821289065	-298.7376403808594	346.3426513671876	-770.1740722656252	-372.8320007324219	270.9643249511719	-742.6412963867189	-326.6353454589844	265.2452087402344	-751.3717041015626	-313.9700012207032	217.3068084716797	-781.391540527344	-380.4479980468751	80.44573211669923	-746.2602539062501	-356.4379577636719	90.16606903076173	-828.4259033203127	-434.7748413085939	51.03436279296876	-790.7955322265627	-226.7733306884766	52.62925720214845	-800.0881958007815	-224.9427642822266	55.72017669677736	-754.6970825195314	-252.7388305664063	34.5909767150879	-701.6445312500001	nan	nan	nan	
4	0.015	-184.6839599609375	1617.017822265625	-898.9475097656252	-282.1372985839844	1534.975708007813	-815.5920410156252	-360.0559997558594	1414.376098632813	-903.6204833984377	-365.3706359863282	1092.175537109375	-923.119323730469	-225.5605010986329	1344.163818359375	-905.7105712890627	-293.6072082519532	1370.30078125	-1078.618408203125	-302.7061767578126	1212.99169921875	-1205.989135742188	-285.0814514160157	1169.95703125	-1187.568969726563	-308.6062927246094	1153.64208984375	-1241.6689453125	-319.7241516113282	1104.414916992188	-1268.860473632813	-398.2029418945314	1089.937377929688	-1231.225463867188	-311.4129943847657	918.628845214844	-1112.566284179688	-263.2934265136719	937.1252441406252	-1090.267211914063	-267.5611572265626	891.4077148437502	-1151.594116210938	-300.0381469726563	1352.457763671875	-739.2622070312501	-349.5592041015626	1205.017822265625	-613.1724853515626	-314.3966674804688	1168.719482421875	-612.0097656250001	-357.3128662109376	1143.932495117188	-577.3861083984376	-347.9469909667969	1074.138916015625	-557.3954467773439	-412.5740661621095	1056.642700195313	-615.6051025390626	-298.3932495117188	913.8187255859377	-731.6189575195314	-244.0038452148438	934.5759277343752	-740.8203125000001	-254.3329315185547	888.4246215820315	-686.6761474609376	-193.8469390869141	910.7855224609377	-1024.752319335938	-192.9471893310547	910.743835449219	-816.2807617187502	-359.0919799804688	989.5407714843752	-920.6192626953127	-365.6270751953126	961.7690429687502	-949.566101074219	-365.1780395507813	959.625915527344	-893.0318603515627	-291.4737548828126	770.0506591796877	-1098.345092773438	-275.6402893066407	686.2438964843751	-1103.798706054688	-227.8100280761719	681.0731201171876	-1090.70751953125	-313.6260681152344	639.2523193359376	-1094.974487304688	-337.6217651367188	479.8031311035157	-1081.544921875	-307.1314086914063	459.4788818359376	-968.809020996094	-316.7866821289063	327.1453247070313	-1028.9033203125	-340.7309265136719	282.8037109375001	-1101.856201171875	-313.3753662109376	280.6366271972657	-1064.93994140625	-330.8567199707032	200.7591552734376	-1041.402221679688	-389.4399719238282	83.23380279541017	-1108.941284179688	-365.0910034179688	87.29837799072267	-1026.891235351563	-444.3051757812501	44.60441207885743	-1069.708374023438	-234.666732788086	52.88924789428712	-1051.632446289063	-228.5900268554688	53.8671340942383	-1090.163452148438	-246.0868225097657	42.91647720336915	-1141.336303710938	-309.9125671386719	676.2300415039064	-744.2281494140626	-280.7869567871094	615.4169921875001	-742.1791381835939	-247.2363281250001	614.4816284179689	-749.8277587890626	-318.2920227050782	543.0748901367189	-755.0020751953126	-327.5887451171876	481.7395324707032	-758.1512451171876	-297.7831115722657	468.2264099121095	-872.2095336914065	-298.6931762695313	346.3301086425782	-770.1494750976565	-372.8368225097657	270.9529724121094	-742.6361083984376	-326.5914306640626	265.1949157714844	-751.3648681640626	-313.9834289550782	217.2726135253907	-781.4001464843752	-380.4723205566407	80.45149993896486	-746.2283325195314	-356.4139099121094	90.17671966552736	-828.4368286132815	-434.7652893066407	51.03250122070314	-790.7927856445315	-226.7726287841797	52.63254928588869	-800.086608886719	-224.9257049560547	55.72599029541017	-754.6912841796876	-252.7028198242188	34.60417938232423	-701.6583251953126	nan	nan	nan	
